<svg xmlns="http://www.w3.org/2000/svg" width="780" height="440" viewBox="0 0 780 440"><defs><style>.d{fill:#fff;}.e{fill:#ffb5d5;}.f{fill:#e0447c;}.g{fill:#ff76ae;}.h{fill:#162020;}</style></defs><g id="a"><rect class="f" x=".0018" y=".0014" width="780" height="440"></rect></g><g id="b"><g><rect class="e" x="250.7289" y="104.9987" width="284.5162" height="230.0026"></rect><path class="h" d="M535.2451,335.626H250.7285c-.3447,0-.625-.2803-.625-.625V104.9985c0-.3452,.2803-.625,.625-.625h284.5166c.3447,0,.625,.2798,.625,.625v230.0024c0,.3447-.2803,.625-.625,.625Zm-283.8916-1.25h283.2666V105.6235H251.3535v228.7524Z"></path></g><g><rect class="g" x="276.6167" y="211.2878" width="88.3668" height="123.7135"></rect><path class="h" d="M364.9834,335.626h-88.3672c-.3447,0-.625-.2803-.625-.625v-123.7134c0-.3452,.2803-.625,.625-.625h88.3672c.3447,0,.625,.2798,.625,.625v123.7134c0,.3447-.2803,.625-.625,.625Zm-87.7422-1.25h87.1172v-122.4634h-87.1172v122.4634Z"></path></g><g><path class="g" d="M238.7858,104.9987v71.4402c0,10.5857,8.5813,19.167,19.1666,19.167h.0004c10.5857,0,19.1666-8.5813,19.1666-19.167V104.9987h-38.3336Z"></path><path class="h" d="M257.9531,196.231c-10.9131,0-19.792-8.8784-19.792-19.792V104.9985c0-.3452,.2803-.625,.625-.625h38.333c.3447,0,.625,.2798,.625,.625v71.4404c0,10.9136-8.8779,19.792-19.791,19.792Zm-18.542-90.6074v70.8154c0,10.2241,8.3174,18.542,18.541,18.542s18.542-8.3179,18.542-18.542V105.6235h-37.083Z"></path></g><g><path class="d" d="M277.1181,104.9987v71.4402c0,10.5857,8.5813,19.167,19.1666,19.167h.0004c10.5857,0,19.1666-8.5813,19.1666-19.167V104.9987h-38.3336Z"></path><path class="h" d="M296.2852,196.231c-10.9131,0-19.792-8.8784-19.792-19.792V104.9985c0-.3452,.2803-.625,.625-.625h38.334c.3447,0,.625,.2798,.625,.625v71.4404c0,10.9136-8.8789,19.792-19.792,19.792Zm-18.542-90.6074v70.8154c0,10.2241,8.3184,18.542,18.542,18.542s18.542-8.3179,18.542-18.542V105.6235h-37.084Z"></path></g><g><path class="g" d="M315.4503,104.9987v71.4402c0,10.5857,8.5813,19.167,19.1666,19.167h.0004c10.5857,0,19.1666-8.5813,19.1666-19.167V104.9987h-38.3336Z"></path><path class="h" d="M334.6172,196.231c-10.9131,0-19.792-8.8784-19.792-19.792V104.9985c0-.3452,.2803-.625,.625-.625h38.334c.3447,0,.625,.2798,.625,.625v71.4404c0,10.9136-8.8789,19.792-19.792,19.792Zm-18.542-90.6074v70.8154c0,10.2241,8.3184,18.542,18.542,18.542s18.542-8.3179,18.542-18.542V105.6235h-37.084Z"></path></g><g><path class="d" d="M353.7826,104.9987v71.4402c0,10.5857,8.5813,19.167,19.1666,19.167h.0004c10.5857,0,19.1666-8.5813,19.1666-19.167V104.9987h-38.3336Z"></path><path class="h" d="M372.9492,196.231c-10.9131,0-19.792-8.8784-19.792-19.792V104.9985c0-.3452,.2803-.625,.625-.625h38.334c.3447,0,.625,.2798,.625,.625v71.4404c0,10.9136-8.8789,19.792-19.792,19.792Zm-18.542-90.6074v70.8154c0,10.2241,8.3184,18.542,18.542,18.542s18.542-8.3179,18.542-18.542V105.6235h-37.084Z"></path></g><g><path class="g" d="M392.1148,104.9987v71.4402c0,10.5857,8.5813,19.167,19.1666,19.167h.0004c10.5857,0,19.1666-8.5813,19.1666-19.167V104.9987h-38.3336Z"></path><path class="h" d="M411.2822,196.231c-10.9131,0-19.792-8.8784-19.792-19.792V104.9985c0-.3452,.2803-.625,.625-.625h38.333c.3447,0,.625,.2798,.625,.625v71.4404c0,10.9136-8.8779,19.792-19.791,19.792Zm-18.542-90.6074v70.8154c0,10.2241,8.3174,18.542,18.541,18.542s18.542-8.3179,18.542-18.542V105.6235h-37.083Z"></path></g><g><path class="d" d="M430.447,104.9987v71.4402c0,10.5857,8.5813,19.167,19.1666,19.167h.0004c10.5857,0,19.1666-8.5813,19.1666-19.167V104.9987h-38.3336Z"></path><path class="h" d="M449.6143,196.231c-10.9131,0-19.792-8.8784-19.792-19.792V104.9985c0-.3452,.2803-.625,.625-.625h38.333c.3447,0,.625,.2798,.625,.625v71.4404c0,10.9136-8.8779,19.792-19.791,19.792Zm-18.542-90.6074v70.8154c0,10.2241,8.3174,18.542,18.541,18.542s18.542-8.3179,18.542-18.542V105.6235h-37.083Z"></path></g><g><path class="g" d="M468.7793,104.9987v71.4402c0,10.5857,8.5813,19.167,19.1666,19.167h.0004c10.5857,0,19.1666-8.5813,19.1666-19.167V104.9987h-38.3336Z"></path><path class="h" d="M487.9463,196.231c-10.9131,0-19.792-8.8784-19.792-19.792V104.9985c0-.3452,.2803-.625,.625-.625h38.334c.3447,0,.625,.2798,.625,.625v71.4404c0,10.9136-8.8789,19.792-19.792,19.792Zm-18.542-90.6074v70.8154c0,10.2241,8.3184,18.542,18.542,18.542s18.542-8.3179,18.542-18.542V105.6235h-37.084Z"></path></g><g><path class="d" d="M507.1115,104.9987v71.4402c0,10.5857,8.5813,19.167,19.1666,19.167h.0004c10.5857,0,19.1666-8.5813,19.1666-19.167V104.9987h-38.3336Z"></path><path class="h" d="M526.2783,196.231c-10.9131,0-19.792-8.8784-19.792-19.792V104.9985c0-.3452,.2803-.625,.625-.625h38.334c.3447,0,.625,.2798,.625,.625v71.4404c0,10.9136-8.8789,19.792-19.792,19.792Zm-18.542-90.6074v70.8154c0,10.2241,8.3184,18.542,18.542,18.542s18.542-8.3179,18.542-18.542V105.6235h-37.084Z"></path></g><g><rect class="d" x="287.0713" y="262.0676" width="11.4503" height="32.3597"></rect><path class="h" d="M298.5215,295.0527h-11.4502c-.3447,0-.625-.2803-.625-.625v-32.3604c0-.3447,.2803-.625,.625-.625h11.4502c.3447,0,.625,.2803,.625,.625v32.3604c0,.3447-.2803,.625-.625,.625Zm-10.8252-1.25h10.2002v-31.1104h-10.2002v31.1104Z"></path></g><path class="h" d="M570.7168,335.626H209.2832c-.3447,0-.625-.2803-.625-.625s.2803-.625,.625-.625h361.4336c.3447,0,.625,.2803,.625,.625s-.2803,.625-.625,.625Z"></path><g><rect class="d" x="393.2081" y="211.2878" width="111.143" height="74.6762"></rect><path class="h" d="M504.3516,286.5889h-111.1436c-.3447,0-.625-.2803-.625-.625v-74.6763c0-.3452,.2803-.625,.625-.625h111.1436c.3447,0,.625,.2798,.625,.625v74.6763c0,.3447-.2803,.625-.625,.625Zm-110.5186-1.25h109.8936v-73.4263h-109.8936v73.4263Z"></path></g><path class="h" d="M468.7139,246.5811c-.1602,0-.3193-.0605-.4414-.1826l-19.5098-19.4951-19.4746,19.4941c-.2441,.2441-.6396,.2451-.8838,.001s-.2451-.6396-.001-.8838l19.917-19.9365c.1172-.1172,.2764-.1836,.4424-.1836h0c.166,0,.3242,.0654,.4414,.1826l19.9512,19.9365c.2441,.2441,.2451,.6396,.001,.8838-.1221,.1221-.2822,.1836-.4424,.1836Z"></path><g><circle class="g" cx="448.7796" cy="228.5878" r="3.3604"></circle><path class="h" d="M448.7793,232.5732c-2.1973,0-3.9854-1.7881-3.9854-3.9854s1.7881-3.9854,3.9854-3.9854,3.9854,1.7881,3.9854,3.9854-1.7881,3.9854-3.9854,3.9854Zm0-6.7207c-1.5078,0-2.7354,1.2275-2.7354,2.7354s1.2275,2.7354,2.7354,2.7354,2.7354-1.2275,2.7354-2.7354-1.2275-2.7354-2.7354-2.7354Z"></path></g><g><rect class="f" x="421.3983" y="238.5446" width="54.7625" height="33.4798"></rect><path class="h" d="M476.1611,272.6494h-54.7627c-.3447,0-.625-.2803-.625-.625v-33.4795c0-.3447,.2803-.625,.625-.625h54.7627c.3447,0,.625,.2803,.625,.625v33.4795c0,.3447-.2803,.625-.625,.625Zm-54.1377-1.25h53.5127v-32.2295h-53.5127v32.2295Z"></path></g><path class="d" d="M449.5934,266.907c-1.7051,0-2.8663,.0304-4.0251-.0091-1.0394-.0354-2.0874-.0341-3.1073-.2959-1.3131-.337-2.4462-.9657-3.3241-2.0231-.8607-1.0366-1.2906-2.243-1.4377-3.5636-.1106-.9928-.15-1.9901-.1506-2.9887-.0013-1.9659-.0128-3.9318,.005-5.8975,.0088-.9781,.0346-1.9586,.1853-2.9285,.278-1.7906,1.0995-3.2618,2.6062-4.3028,.9077-.6271,1.9337-.9678,3.0276-1.0833,2.3644-.2495,4.7379-.1331,7.1078-.1568,1.0117-.0101,2.0236-.0046,3.0344,.0423,1.0759,.05,2.145,.1332,3.1693,.5198,1.1228,.4238,2.0464,1.1026,2.7587,2.0667,.7656,1.0363,1.1433,2.2203,1.239,3.4876,.2279,3.0179,.1111,6.0419,.1045,9.0633-.002,.9243-.0325,1.8554-.2142,2.7703-.2666,1.342-.8241,2.5263-1.8338,3.4807-.8191,.7742-1.7853,1.2532-2.8714,1.5131-.66,.1579-1.3305,.2035-2.0071,.245-1.6038,.0984-3.2078,.0415-4.2665,.0604Zm9.0687-11.6204c.0035-1.4306,.0222-2.8616-.0405-4.2913-.0313-.714-.0685-1.4287-.2741-2.1218-.2134-.7194-.5704-1.3463-1.1262-1.8605-.7774-.7193-1.7289-1.0017-2.7477-1.0995-1.0907-.1048-2.1874-.1072-3.2819-.1128-1.8688-.0096-3.7378-.0239-5.6064,.0286-.7468,.021-1.4945,.034-2.2334,.1582-1.0608,.1783-1.9718,.6303-2.646,1.4928-.5893,.7539-.8147,1.6397-.9075,2.5705-.0896,.8986-.0925,1.8016-.1028,2.7022-.0261,2.2618-.0335,4.5243,.0339,6.7856,.0195,.655,.0632,1.3104,.2205,1.9543,.2219,.9082,.6718,1.6701,1.3994,2.2564,.684,.5512,1.4969,.7982,2.3509,.9049,.8826,.1103,1.7741,.114,2.6618,.1186,2.3134,.0119,4.6272,.0388,6.9403-.0329,.5925-.0183,1.1842-.05,1.7678-.1601,.9217-.1739,1.7415-.5418,2.3874-1.2493,.5578-.6109,.8548-1.341,1.0103-2.1386,.186-.9544,.16-1.9245,.1879-2.8888,.029-1.0047,.0065-2.0109,.0065-3.0164Z"></path><path class="d" d="M449.1478,261.268c-3.2436,.0209-5.9834-2.6644-5.9604-6.0277,.0225-3.2902,2.6941-5.942,6.0187-5.9383,3.2918,.0036,5.945,2.6831,5.9579,5.9781,.013,3.3044-2.6938,6.0366-6.0163,5.9879Zm.0317-2.1386c2.1151-.0024,3.8451-1.726,3.8344-3.8415-.0108-2.1379-1.6849-3.8208-3.8374-3.8379-2.1149-.0168-3.8597,1.7391-3.8372,3.8608,.0225,2.1298,1.7128,3.799,3.8402,3.8186Z"></path><path class="d" d="M456.7837,249.0966c-.0003,.784-.6285,1.417-1.4054,1.4162-.7772-.0008-1.4316-.6455-1.4281-1.407,.0036-.797,.6333-1.4307,1.4191-1.4281,.81,.0026,1.4147,.6093,1.4144,1.419Z"></path></g></svg>